<svg width="184" height="184" viewBox="0 0 184 184" fill="none" xmlns="http://www.w3.org/2000/svg">
<path d="M94.61 36.37C85.78 36.37 77.48 39.89 71.34 46.27C59.06 59.02 59.71 79.44 72.23 91.96L91.51 111.24C93.19 112.92 93.19 115.64 91.51 117.32C89.83 119 87.11 119 85.43 117.32L65.69 97.58C56.75 88.64 52.46 76.29 54.03 63.46C54.92 56.24 57.77 49.35 62.26 43.62C70.22 33.45 81.98 27.76 94.61 27.76C105.53 27.76 115.8 32.01 123.53 39.74L182.34 97.89C186.15 79.3 180.85 59.22 166.43 44.8L139.2 17.57C116.38 -5.24998 79.39 -5.24998 56.57 17.57L17.56 56.58C17.5 56.64 17.44 56.7 17.39 56.75C8.44999 65.77 8.70999 80.41 17.71 89.38L67.11 138.59C73.22 144.7 81.33 148.05 89.95 148.05C98.57 148.05 106.69 144.69 112.79 138.59C118.89 132.49 122.25 124.38 122.25 115.75C122.25 107.12 118.89 99.01 112.79 92.91L93.05 73.18C91.37 71.5 91.37 68.78 93.05 67.1C94.73 65.42 97.45 65.42 99.13 67.1L118.87 86.84C126.6 94.56 130.85 104.84 130.85 115.76C130.85 126.68 126.6 136.96 118.87 144.68C111.15 152.41 100.87 156.66 89.95 156.66C79.03 156.66 68.76 152.41 61.03 144.68L1.75999 85.63C-2.24001 104.35 3.01999 124.66 17.56 139.2L44.79 166.43C67.61 189.25 104.6 189.25 127.42 166.43L166.43 127.42C166.58 127.27 166.72 127.13 166.87 126.98C175.78 117.88 175.54 103.25 166.48 94.3L117.46 45.84C111.34 39.72 103.23 36.36 94.61 36.36V36.37Z" fill="#56E1E9"/>
</svg>
