<?xml version="1.0" encoding="UTF-8"?>
<svg id="OBJECTS" xmlns="http://www.w3.org/2000/svg" viewBox="0 0 239.29 44.29">
  <defs>
    <style>
      .cls-1 {
        fill: #56e1e9;
      }
    </style>
  </defs>
  <path class="cls-1" d="M25.38,9.39c-1.98,0-3.84,.79-5.22,2.22-2.75,2.86-2.61,7.43,.2,10.24l4.32,4.32c.38,.38,.38,.99,0,1.36h0c-.38,.38-.99,.38-1.36,0l-4.42-4.42c-2-2-2.97-4.77-2.61-7.65,.2-1.62,.84-3.16,1.84-4.45,1.78-2.28,4.42-3.55,7.25-3.55,2.45,0,4.75,.95,6.48,2.68l13.18,13.03c.85-4.17-.33-8.67-3.57-11.9l-6.1-6.1C30.26,.06,21.97,.06,16.86,5.18L8.11,13.92s-.03,.03-.04,.04c-2,2.02-1.95,5.3,.07,7.31l11.07,11.03c1.37,1.37,3.19,2.12,5.12,2.12s3.75-.75,5.12-2.12c1.37-1.37,2.12-3.19,2.12-5.12s-.75-3.75-2.12-5.12l-4.42-4.42c-.38-.38-.38-.99,0-1.36h0c.38-.38,.99-.38,1.36,0l4.42,4.42c1.73,1.73,2.68,4.03,2.68,6.48s-.95,4.75-2.68,6.48c-1.73,1.73-4.03,2.68-6.48,2.68s-4.75-.95-6.48-2.68L4.57,20.43c-.9,4.2,.28,8.75,3.54,12.01l6.1,6.1c5.11,5.11,13.41,5.11,18.52,0l8.74-8.74s.07-.07,.1-.1c2-2.04,1.94-5.32-.09-7.33l-10.99-10.86c-1.37-1.37-3.19-2.12-5.12-2.12Z"/>
  <g>
    <path d="M76.42,17.76c1.76,0,3.26,.62,4.5,1.86,1.24,1.24,1.86,2.74,1.86,4.5v3.96c0,1.76-.62,3.26-1.86,4.5-1.24,1.24-2.74,1.86-4.5,1.86h-22.42v-4.55h22.3c.56,0,1.02-.18,1.38-.54,.36-.36,.54-.82,.54-1.38v-3.72c0-.56-.18-1.02-.54-1.38-.36-.36-.82-.54-1.38-.54h-15.94c-1.76,0-3.26-.62-4.5-1.86-1.24-1.24-1.86-2.74-1.86-4.5v-3.96c0-1.76,.62-3.26,1.86-4.5,1.24-1.24,2.74-1.86,4.5-1.86h8.03v4.56h-7.91c-.56,0-1.02,.18-1.38,.54-.36,.36-.54,.82-.54,1.38v3.72c0,.56,.18,1.02,.54,1.38,.36,.36,.82,.54,1.38,.54h15.94Zm-4.29-8.81c-.14-.08-.25-.2-.33-.36-.08-.2-.12-.4-.12-.6v-.18c-.04-.28,.04-.54,.24-.78,.16-.2,.38-.3,.66-.3,.2,0,.38,.06,.54,.18,.16,.16,.26,.34,.3,.54h-.3c0-.16-.06-.28-.18-.36-.12-.08-.24-.12-.36-.12-.2,0-.36,.08-.48,.24-.08,.2-.12,.4-.12,.6v.18c0,.24,.06,.44,.18,.6,.12,.16,.28,.24,.48,.24,.08,0,.16-.02,.24-.06,.08,0,.16-.04,.24-.12v-.48h-.54v-.24h.84v.78c-.08,.12-.18,.2-.3,.24-.16,.08-.32,.12-.48,.12-.2,0-.37-.04-.51-.12Zm2.97,.3h-1.44v-.24h1.44v.24Zm.9-.18c-.24,0-.42-.08-.54-.24-.16-.24-.22-.48-.18-.72v-.36c-.04-.28,0-.54,.12-.78,.16-.16,.35-.24,.57-.24s.39,.08,.51,.24c.16,.24,.22,.48,.18,.72v.36c.04,.28,0,.54-.12,.78-.16,.16-.34,.24-.54,.24Zm-.48-1.44v.48c0,.2,.04,.38,.12,.54,.08,.12,.18,.18,.3,.18,.16,0,.28-.06,.36-.18,.08-.16,.12-.32,.12-.48v-.48c0-.2-.04-.38-.12-.54-.08-.12-.2-.18-.36-.18-.12,0-.22,.06-.3,.18-.08,.16-.12,.32-.12,.48Zm2.16,1.38v-1.86l-.54,.18v-.24l.78-.3h.06v2.22h-.3Zm1.41-.84c-.1-.08-.17-.16-.21-.24-.04-.12-.06-.26-.06-.42,0-.12,.02-.26,.06-.42,.04-.08,.12-.16,.24-.24,.12-.08,.24-.12,.36-.12,.24,0,.42,.08,.54,.24,.16,.24,.22,.48,.18,.72v.06c.04,.36-.04,.68-.24,.96-.2,.24-.46,.34-.78,.3h-.06v-.24h.06c.2,.04,.38-.02,.54-.18s.24-.34,.24-.54c-.08,.08-.16,.14-.24,.18-.08,.04-.18,.06-.3,.06s-.23-.04-.33-.12Zm.09-1.02c-.08,.12-.12,.24-.12,.36,0,.16,.04,.28,.12,.36,.08,.12,.18,.18,.3,.18s.22-.03,.3-.09c.08-.06,.14-.13,.18-.21v-.12c0-.16-.06-.32-.18-.48-.04-.12-.13-.18-.27-.18s-.25,.06-.33,.18Z"/>
    <path d="M108.06,5.65c1.76,0,3.26,.62,4.5,1.86,1.24,1.24,1.86,2.74,1.86,4.5v3.96c0,1.76-.62,3.26-1.86,4.5-1.24,1.24-2.74,1.86-4.5,1.86h-15.94c-.56,0-1.02,.18-1.38,.54-.36,.36-.54,.82-.54,1.38v10.19h-4.56v-10.31c0-1.76,.62-3.26,1.86-4.5,1.24-1.24,2.74-1.86,4.5-1.86h15.94c.56,0,1.02-.18,1.38-.54,.36-.36,.54-.82,.54-1.38v-3.72c0-.56-.18-1.02-.54-1.38-.36-.36-.82-.54-1.38-.54h-22.3V5.65h22.42Zm-15.64,26.67c-.12,.2-.16,.42-.12,.66v.18c0,.2,.06,.4,.18,.6,.12,.16,.28,.24,.48,.24,.08,0,.16-.02,.24-.06,.08-.04,.16-.08,.24-.12v-.54h-.54v-.24h.84v.84c-.08,.12-.18,.2-.3,.24-.16,.08-.32,.12-.48,.12-.2,0-.37-.05-.51-.15-.14-.1-.25-.23-.33-.39-.08-.16-.12-.34-.12-.54v-.18c-.04-.32,.04-.58,.24-.78,.16-.2,.38-.3,.66-.3,.2,0,.38,.06,.54,.18,.16,.12,.26,.28,.3,.48h-.3c0-.12-.06-.22-.18-.3-.12-.08-.24-.12-.36-.12-.2,0-.36,.06-.48,.18Zm3,2.1h-1.44v-.24h1.44v.24Zm.84-2.52c.24,0,.42,.08,.54,.24,.16,.2,.22,.44,.18,.72v.36c.04,.28-.02,.52-.18,.72-.12,.2-.29,.3-.51,.3s-.39-.08-.51-.24c-.16-.24-.22-.48-.18-.72v-.42c-.04-.24,0-.48,.12-.72,.16-.16,.34-.24,.54-.24Zm.48,1.38v-.42c0-.2-.04-.38-.12-.54-.08-.12-.19-.18-.33-.18s-.25,.06-.33,.18c-.08,.16-.12,.32-.12,.48v.48c0,.2,.04,.38,.12,.54,.08,.12,.18,.18,.3,.18,.16,0,.28-.06,.36-.18,.08-.16,.12-.34,.12-.54Zm.72-1.08l.78-.3h.06v2.28h-.3v-1.92l-.54,.24v-.3Zm2.46,.48c.2,0,.36,.08,.48,.24,.28,.36,.28,.72,0,1.08-.12,.16-.28,.24-.48,.24-.24,0-.42-.1-.54-.3-.16-.16-.24-.36-.24-.6v-.12c0-.36,.1-.68,.3-.96,.2-.24,.46-.36,.78-.36h.06v.24h-.06c-.2,0-.38,.08-.54,.24-.12,.16-.2,.34-.24,.54,.16-.16,.32-.24,.48-.24Zm.3,1.14c.16-.24,.16-.48,0-.72-.08-.12-.18-.18-.3-.18-.24,0-.4,.12-.48,.36v.06c0,.16,.04,.32,.12,.48,.08,.12,.2,.18,.36,.18,.12,0,.22-.06,.3-.18Z"/>
    <path d="M145.28,10.21h-12.11V29.87h12.11v4.55h-28.77v-4.55h12.11V10.21h-12.11V5.65h28.77v4.56Zm-28.29,15.7c-.12,.2-.18,.4-.18,.6v.18c0,.24,.06,.44,.18,.6,.12,.16,.28,.24,.48,.24,.08,0,.18-.02,.3-.06,.08,0,.14-.04,.18-.12v-.48h-.54v-.24h.84v.84c-.08,.08-.18,.16-.3,.24-.16,.04-.32,.06-.48,.06-.2,0-.37-.04-.51-.12-.14-.08-.25-.2-.33-.36-.08-.2-.12-.38-.12-.54v-.24c0-.28,.08-.54,.24-.78,.16-.2,.38-.3,.66-.3,.2,0,.4,.06,.6,.18,.16,.16,.24,.34,.24,.54h-.3c0-.12-.05-.23-.15-.33-.1-.1-.23-.15-.39-.15s-.3,.08-.42,.24Zm2.94,2.04h-1.44v-.18h1.44v.18Zm1.44-.42c-.16,.16-.35,.24-.57,.24s-.39-.08-.51-.24c-.16-.2-.22-.44-.18-.72v-.36c-.04-.28,.02-.54,.18-.78,.12-.16,.3-.24,.54-.24,.2,0,.38,.08,.54,.24,.12,.24,.18,.48,.18,.72v.42c0,.24-.06,.48-.18,.72Zm-.96-1.14v.42c-.04,.2-.02,.38,.06,.54,.08,.12,.2,.18,.36,.18,.12,0,.22-.06,.3-.18,.08-.16,.12-.32,.12-.48v-.48c0-.2-.04-.38-.12-.54-.08-.12-.18-.18-.3-.18-.16,0-.28,.06-.36,.18-.08,.16-.1,.34-.06,.54Zm2.7,1.14c-.12,.16-.29,.24-.51,.24s-.39-.08-.51-.24c-.16-.2-.22-.44-.18-.72v-.36c-.04-.28,0-.54,.12-.78,.16-.16,.34-.24,.54-.24,.24,0,.42,.08,.54,.24,.16,.24,.22,.48,.18,.72v.42c.04,.24-.02,.48-.18,.72Zm-.96-1.14v.42c0,.2,.04,.38,.12,.54,.08,.12,.19,.18,.33,.18s.25-.06,.33-.18c.08-.16,.1-.32,.06-.48v-.48c.04-.2,.02-.38-.06-.54-.08-.12-.2-.18-.36-.18-.12,0-.22,.06-.3,.18-.08,.16-.12,.34-.12,.54Zm1.86,1.14c.24,0,.43-.08,.57-.24,.14-.16,.21-.34,.21-.54-.08,.08-.16,.14-.24,.18-.08,.04-.16,.06-.24,.06-.16,0-.29-.03-.39-.09-.1-.06-.17-.15-.21-.27-.04-.12-.06-.26-.06-.42,0-.12,.02-.24,.06-.36,.08-.12,.17-.22,.27-.3,.1-.08,.21-.12,.33-.12,.24,0,.42,.1,.54,.3,.16,.2,.22,.42,.18,.66v.06c.04,.36-.04,.68-.24,.96-.2,.24-.46,.36-.78,.36h-.06v-.24h.06Zm.6-.87c.08-.06,.14-.13,.18-.21v-.12c0-.16-.04-.32-.12-.48-.08-.08-.19-.13-.33-.15-.14-.02-.25,.03-.33,.15-.08,.12-.1,.24-.06,.36-.04,.16-.02,.3,.06,.42,.08,.08,.18,.12,.3,.12s.22-.03,.3-.09Z"/>
    <path d="M173.63,22.74c1.24,1.24,1.86,2.74,1.86,4.5v7.25h-4.56v-7.19c0-.56-.18-1.02-.54-1.38l-15.16-15.16c-.36-.36-.82-.54-1.38-.54h-7.13V5.65h7.19c1.76,0,3.26,.62,4.5,1.86l2.76,2.76V5.72h14.32v4.55h-14.32l12.47,12.47Zm-26.43,9.59c-.12,.2-.18,.42-.18,.66v.18c0,.2,.06,.4,.18,.6,.12,.16,.28,.24,.48,.24,.08,0,.18-.02,.3-.06,.08-.04,.14-.08,.18-.12v-.54h-.54v-.24h.84v.84c-.08,.12-.18,.2-.3,.24-.16,.08-.32,.12-.48,.12-.2,0-.37-.05-.51-.15-.14-.1-.25-.23-.33-.39-.08-.16-.12-.34-.12-.54v-.18c0-.32,.08-.58,.24-.78,.16-.2,.38-.3,.66-.3,.2,0,.4,.06,.6,.18,.16,.12,.24,.28,.24,.48h-.3c0-.12-.05-.22-.15-.3-.1-.08-.23-.12-.39-.12-.2,0-.34,.06-.42,.18Zm2.94,2.1h-1.44v-.24h1.44v.24Zm.9-2.52c.2,0,.38,.08,.54,.24,.12,.2,.18,.44,.18,.72v.36c0,.28-.06,.52-.18,.72-.08,.08-.17,.15-.27,.21-.1,.06-.19,.09-.27,.09-.24,0-.42-.08-.54-.24-.16-.24-.22-.48-.18-.72v-.42c-.04-.24,.02-.48,.18-.72,.12-.2,.3-.28,.54-.24Zm.42,1.38v-.42c0-.2-.04-.38-.12-.54-.08-.12-.19-.18-.33-.18s-.25,.06-.33,.18c-.08,.16-.1,.32-.06,.48v.48c-.04,.2-.02,.38,.06,.54,.08,.12,.19,.18,.33,.18s.25-.06,.33-.18c.08-.16,.12-.34,.12-.54Zm1.62,0l-.66,.66h1.14v.24h-1.44v-.18l.78-.9c.08-.08,.16-.18,.24-.3,.04-.08,.06-.16,.06-.24,0-.12-.04-.22-.12-.3-.08-.08-.18-.12-.3-.12s-.22,.04-.3,.12c-.08,.08-.12,.2-.12,.36h-.3c0-.2,.06-.38,.18-.54,.16-.12,.34-.18,.54-.18s.38,.06,.54,.18c.12,.12,.18,.26,.18,.42-.04,.32-.18,.58-.42,.78Zm1.5-1.38c.24,0,.42,.08,.54,.24,.12,.2,.18,.44,.18,.72v.36c0,.28-.06,.52-.18,.72-.12,.2-.3,.3-.54,.3-.2,0-.38-.08-.54-.24-.12-.24-.18-.48-.18-.72v-.42c0-.24,.06-.48,.18-.72,.12-.2,.3-.28,.54-.24Zm.42,1.38v-.42c.04-.2,.02-.38-.06-.54-.08-.12-.2-.18-.36-.18-.12,0-.22,.06-.3,.18-.08,.16-.12,.32-.12,.48v.48c0,.2,.04,.38,.12,.54,.08,.12,.18,.18,.3,.18s.22-.06,.3-.18c.08-.16,.12-.34,.12-.54Z"/>
    <path d="M194.55,7.75l11.21,26.67h-4.56l-9.53-22.6c-.04-.16-.14-.24-.3-.24s-.26,.08-.3,.24l-9.53,22.6h-4.56l11.21-26.67c.28-.64,.71-1.15,1.29-1.53,.58-.38,1.21-.57,1.89-.57s1.31,.19,1.89,.57c.58,.38,1.01,.89,1.29,1.53Zm-7.01,24.57c-.12,.2-.16,.42-.12,.66v.18c-.04,.2,0,.4,.12,.6,.12,.16,.28,.24,.48,.24,.12,0,.22-.02,.3-.06,.08-.04,.16-.08,.24-.12v-.54h-.54v-.24h.84v.84c-.08,.12-.2,.2-.36,.24-.16,.08-.32,.12-.48,.12s-.32-.05-.48-.15c-.16-.1-.26-.23-.3-.39-.08-.16-.12-.34-.12-.54v-.18c-.04-.32,.04-.58,.24-.78,.16-.2,.38-.3,.66-.3,.2,0,.38,.06,.54,.18,.16,.12,.26,.28,.3,.48h-.3c-.04-.12-.11-.22-.21-.3-.1-.08-.21-.12-.33-.12-.2,0-.36,.06-.48,.18Zm2.94,2.1h-1.38v-.24h1.38v.24Zm.9-2.52c.24,0,.42,.08,.54,.24,.16,.2,.22,.44,.18,.72v.36c.04,.28-.02,.52-.18,.72-.12,.2-.29,.3-.51,.3s-.41-.08-.57-.24c-.12-.24-.18-.48-.18-.72v-.42c0-.24,.06-.48,.18-.72,.16-.16,.34-.24,.54-.24Zm.42,1.38v-.42c.04-.2,.02-.38-.06-.54-.08-.12-.19-.18-.33-.18s-.25,.06-.33,.18c-.08,.16-.12,.32-.12,.48v.48c0,.2,.04,.38,.12,.54,.08,.12,.18,.18,.3,.18,.16,0,.28-.06,.36-.18,.08-.16,.1-.34,.06-.54Zm1.38-1.38c.2,0,.38,.08,.54,.24,.12,.2,.18,.44,.18,.72v.36c0,.28-.06,.52-.18,.72-.16,.2-.34,.3-.54,.3s-.38-.08-.54-.24c-.12-.24-.18-.48-.18-.72v-.42c0-.24,.06-.48,.18-.72,.12-.2,.3-.28,.54-.24Zm.42,1.38v-.42c0-.2-.04-.38-.12-.54-.08-.12-.18-.18-.3-.18s-.22,.06-.3,.18c-.08,.16-.12,.32-.12,.48v.48c0,.2,.04,.38,.12,.54,.08,.12,.18,.18,.3,.18s.22-.06,.3-.18c.08-.16,.12-.34,.12-.54Zm.72-1.08l.84-.3h.06v2.28h-.3v-1.92l-.6,.24v-.3Z"/>
    <path d="M213.91,29.87h22.3v4.55h-22.42c-1.76,0-3.26-.62-4.5-1.86-1.24-1.24-1.86-2.74-1.86-4.5V5.65h4.56V27.95c0,.56,.18,1.02,.54,1.38,.36,.36,.82,.54,1.38,.54Zm14.11-2.22c-.14-.08-.25-.2-.33-.36-.08-.2-.12-.38-.12-.54v-.24c-.04-.28,.04-.54,.24-.78,.16-.2,.38-.28,.66-.24,.2-.04,.4,.02,.6,.18,.12,.12,.2,.28,.24,.48h-.3c0-.12-.06-.23-.18-.33-.12-.1-.24-.13-.36-.09-.2-.04-.34,.02-.42,.18-.12,.2-.18,.4-.18,.6v.18c0,.24,.06,.44,.18,.6,.12,.16,.28,.24,.48,.24,.08,0,.18-.02,.3-.06,.08,0,.14-.04,.18-.12v-.48h-.54v-.24h.84v.84c-.08,.08-.18,.16-.3,.24-.16,.04-.32,.06-.48,.06-.2,0-.37-.04-.51-.12Zm2.97,.3h-1.44v-.18h1.44v.18Zm.9-.18c-.24,0-.42-.08-.54-.24-.16-.2-.22-.44-.18-.72v-.36c-.04-.28,.02-.54,.18-.78,.12-.16,.3-.24,.54-.24,.2,0,.38,.08,.54,.24,.12,.24,.16,.48,.12,.72v.42c.04,.24,0,.48-.12,.72-.16,.2-.34,.28-.54,.24Zm-.42-1.38v.42c-.04,.2-.02,.38,.06,.54,.08,.12,.19,.18,.33,.18s.25-.06,.33-.18c.08-.16,.12-.32,.12-.48v-.48c0-.2-.04-.38-.12-.54-.08-.12-.18-.18-.3-.18-.16,0-.28,.06-.36,.18-.08,.16-.1,.34-.06,.54Zm2.16,1.38v-1.92l-.6,.18v-.24l.84-.3v2.28h-.24Zm1.44-1.98c-.08,.12-.12,.24-.12,.36h-.24c-.04-.2,.02-.36,.18-.48,.16-.16,.34-.24,.54-.24s.36,.06,.48,.18c.12,.12,.18,.26,.18,.42-.04,.32-.18,.6-.42,.84l-.6,.66h1.14v.24h-1.5v-.24l.78-.84c.12-.12,.2-.24,.24-.36,.04-.08,.06-.16,.06-.24,.04-.12,.02-.22-.06-.3-.08-.08-.18-.12-.3-.12s-.24,.04-.36,.12Z"/>
  </g>
</svg>